<svg version="1.1" id="Layer_1" xmlns="http://www.w3.org/2000/svg" xmlns:xlink="http://www.w3.org/1999/xlink" x="0px" y="0px"
	 width="100%" viewBox="0 0 196 74" enable-background="new 0 0 196 74" xml:space="preserve">
<path fill="#FCFDFD" opacity="1.000000" stroke="none" 
	d="
M197.000000,42.000000 
	C197.000000,52.991047 197.000000,63.982098 197.000000,74.979858 
	C131.728790,74.986572 66.457565,74.986572 1.093171,74.986572 
	C1.093171,50.415833 1.093171,25.831196 1.093171,1.123279 
	C66.333183,1.123279 131.666550,1.123279 197.000000,1.123279 
	C197.000000,13.749925 197.000000,26.406303 196.613678,39.627769 
	C195.174393,41.096279 193.603149,41.807400 193.181076,42.944916 
	C192.406769,45.031765 192.310104,47.370041 191.764450,50.583939 
	C189.017410,40.580841 189.017410,40.580841 186.186981,40.881130 
	C187.108002,44.763420 187.934830,48.647697 188.965164,52.477226 
	C189.954514,56.154415 191.144653,59.772980 186.159119,62.419655 
	C190.629120,63.747398 192.216278,61.845299 192.978622,58.736752 
	C194.345230,53.164246 195.662247,47.579582 197.000000,42.000000 
M122.096596,17.258301 
	C120.083038,17.269911 118.069489,17.281523 115.339241,16.992813 
	C113.253960,15.241770 112.338043,16.204565 112.288704,18.450930 
	C112.197403,22.607555 112.137337,26.773754 112.349335,30.921394 
	C112.397354,31.860970 113.611221,32.740955 114.288445,33.648373 
	C114.845787,32.629780 115.825912,31.634941 115.884712,30.588337 
	C116.099052,26.773514 116.005638,22.941401 116.855019,18.854614 
	C117.507660,19.739717 118.646774,20.584980 118.723129,21.517281 
	C118.967194,24.497263 118.676743,27.519831 118.895782,30.503702 
	C118.971657,31.537184 119.934418,32.505558 120.492081,33.503670 
	C120.999680,32.472145 121.828957,31.478909 121.957123,30.402218 
	C122.420082,26.512938 122.647179,22.595583 123.846130,18.822935 
	C124.261696,22.465574 124.610222,26.117765 125.127243,29.745947 
	C125.322128,31.113577 125.907066,32.425621 126.314194,33.763004 
	C126.929390,33.644691 127.544579,33.526382 128.159775,33.408070 
	C128.159775,28.643700 128.490967,23.848064 128.045197,19.125772 
	C127.740021,15.892929 125.516434,15.086043 122.096596,17.258301 
M177.955872,40.021133 
	C177.580780,38.251217 177.205688,36.481297 176.830597,34.711380 
	C176.305130,34.838161 175.779663,34.964943 175.254196,35.091724 
	C175.254196,42.534679 175.254196,49.977634 175.254196,57.704239 
	C177.415100,56.330402 177.415100,56.330402 178.894592,42.858639 
	C179.587982,43.674286 180.812439,44.448704 180.879532,45.312973 
	C181.123383,48.453964 180.877274,51.630524 181.045792,54.781364 
	C181.095184,55.704433 181.907578,56.586681 182.370255,57.487640 
	C182.975143,56.546986 184.038727,55.635796 184.101410,54.660309 
	C184.314163,51.348431 184.197388,48.013573 184.161423,44.687981 
	C184.113358,40.244984 181.985809,39.082367 177.955872,40.021133 
M151.822174,18.793163 
	C152.210068,22.939112 152.540863,27.091898 153.035812,31.225025 
	C153.130585,32.016510 153.871552,32.730618 154.314407,33.480427 
	C154.935913,32.728764 156.050720,32.004307 156.093948,31.220745 
	C156.285843,27.741297 156.204132,24.244465 156.157990,20.754757 
	C156.099777,16.351406 153.975327,15.147925 149.944702,16.041710 
	C149.590164,14.263988 149.235626,12.486268 148.881088,10.708548 
	C148.314880,10.829343 147.748672,10.950139 147.182465,11.070934 
	C147.182465,18.512674 147.182465,25.954414 147.182465,33.396156 
	C147.627487,33.519936 148.072525,33.643715 148.517548,33.767494 
	C148.976730,32.580822 149.694168,31.426413 149.847183,30.201500 
	C150.327057,26.359694 150.594345,22.491329 151.822174,18.793163 
M86.145531,39.067322 
	C85.663368,37.611916 85.181198,36.156506 84.699036,34.701099 
	C84.252029,34.888218 83.805031,35.075340 83.358025,35.262459 
	C83.358025,42.628616 83.358025,49.994770 83.358025,57.360924 
	C83.802040,57.496361 84.246056,57.631798 84.690071,57.767235 
	C85.182419,56.612072 86.033432,55.477264 86.100349,54.297962 
	C86.306915,50.657520 86.214348,47.000107 87.073624,43.087769 
	C87.803932,44.018234 89.060638,44.893997 89.164108,45.889603 
	C89.454132,48.680309 89.084244,51.538544 89.358620,54.332436 
	C89.471535,55.482254 90.566803,56.535603 91.215233,57.632824 
	C91.794060,56.474541 92.733139,55.358315 92.874329,54.148937 
	C93.141869,51.857269 92.975159,49.511902 92.947334,47.189335 
	C92.869591,40.700165 92.270088,40.080898 86.145531,39.067322 
M9.373673,14.935853 
	C1.107020,27.387144 0.893834,40.734673 8.777608,52.255291 
	C15.941324,62.723679 29.559322,68.223038 41.536278,65.484230 
	C55.516190,62.287399 65.963219,50.873363 67.052750,37.605885 
	C68.269272,22.791969 60.605904,9.786962 47.463310,4.361928 
	C33.991634,-1.198946 19.669748,2.605411 9.373673,14.935853 
M127.868996,51.140553 
	C127.919815,55.033695 129.220901,57.614109 134.182556,56.541248 
	C133.906448,58.018524 133.685715,59.199474 133.422348,60.608490 
	C131.645676,59.920250 130.306595,59.401512 128.967499,58.882774 
	C128.672562,59.401558 128.377609,59.920341 128.082672,60.439125 
	C129.563309,61.307106 131.360367,63.167877 132.453308,62.819519 
	C134.271103,62.240135 136.849609,60.347244 136.980026,58.825230 
	C137.498413,52.774658 137.193405,46.653542 137.193405,40.565807 
	C127.796768,40.377792 127.796730,40.377792 127.784531,49.756241 
	C127.784317,49.922611 127.789032,50.088985 127.868996,51.140553 
M162.104370,47.641571 
	C162.104370,61.608017 162.104370,61.608017 164.574066,63.061066 
	C164.854919,61.401928 165.118225,59.846462 165.373322,58.339481 
	C172.501251,57.431107 172.173798,55.183262 171.799164,44.860741 
	C171.535431,37.594055 165.943115,41.247025 162.104401,40.313194 
	C162.104401,42.741230 162.104401,44.718449 162.104370,47.641571 
M105.388809,11.970977 
	C99.955254,13.022729 98.390854,16.192665 101.252647,20.739159 
	C102.663467,22.980513 104.679459,24.856544 105.964302,27.153669 
	C106.457184,28.034880 105.676804,29.628262 105.476608,30.897125 
	C104.628410,30.166794 103.737587,29.479391 102.945312,28.692738 
	C102.295204,28.047241 101.762276,27.283728 101.177414,26.572527 
	C100.577599,26.922569 99.977791,27.272612 99.377975,27.622654 
	C100.376671,29.520435 100.934113,32.174057 102.505241,33.091282 
	C103.915306,33.914463 107.447678,33.537228 108.234962,32.417614 
	C109.395836,30.766714 109.477966,27.877487 109.027870,25.722807 
	C108.656494,23.944994 106.712563,22.545931 105.712547,20.834650 
	C104.765869,19.214653 104.121758,17.414227 103.431702,15.658903 
	C103.398384,15.574151 104.503983,14.867452 104.576157,14.941392 
	C105.801575,16.196894 106.947296,17.530186 108.108063,18.843414 
	C110.956955,16.112337 110.540909,14.524637 105.388809,11.970977 
M151.195847,57.053860 
	C153.693451,57.177013 156.191071,57.300171 158.949188,57.436172 
	C158.949188,52.604664 159.209457,48.103310 158.788284,43.666645 
	C158.664276,42.360317 156.752350,40.487465 155.404205,40.234039 
	C153.963745,39.963261 151.938950,40.982658 150.724808,42.063160 
	C150.079483,42.637447 150.610443,44.533489 150.610443,45.832905 
	C150.988556,45.843250 151.366684,45.853592 151.744797,45.863937 
	C152.624969,44.739410 153.505142,43.614887 154.800903,41.959412 
	C156.293091,45.167976 156.013321,46.801506 153.256454,48.156006 
	C149.675446,49.915428 148.802322,52.862171 151.195847,57.053860 
M70.977463,49.413898 
	C70.977463,50.077156 70.864380,50.764263 70.998299,51.399281 
	C71.430817,53.450298 71.954178,55.482162 72.442528,57.521404 
	C73.284782,55.647636 74.127037,53.773869 75.201614,51.383263 
	C80.120224,49.425205 82.219269,45.503639 80.504738,40.198616 
	C78.922485,35.302883 75.083420,35.953434 70.977455,36.118496 
	C70.977455,40.528584 70.977455,44.485508 70.977463,49.413898 
M95.944252,54.258102 
	C97.667427,55.415573 99.491089,57.585167 101.083641,57.427052 
	C102.490334,57.287384 104.326576,54.711945 104.740807,52.926128 
	C105.359367,50.259434 105.433235,47.192440 104.707405,44.582592 
	C104.210037,42.794250 101.704193,40.087513 100.550842,40.296810 
	C98.715660,40.629826 96.372406,42.802299 95.852295,44.649601 
	C95.083122,47.381489 95.722893,50.510067 95.944252,54.258102 
M116.795998,55.285133 
	C118.430450,56.086891 120.314835,57.803841 121.632095,57.444107 
	C123.073631,57.050438 124.701225,54.861107 124.983414,53.234959 
	C125.507599,50.214367 125.587433,46.925835 124.908821,43.965107 
	C124.551239,42.404999 122.019310,40.095329 120.796158,40.280788 
	C119.061722,40.543766 116.590416,42.603508 116.285591,44.240246 
	C115.668495,47.553745 116.295685,51.098972 116.795998,55.285133 
M76.290352,23.418053 
	C76.149376,25.885662 76.008408,28.353271 75.867432,30.820881 
	C75.441589,30.815613 75.015747,30.810345 74.589897,30.805077 
	C74.259392,29.164686 73.928886,27.524298 73.598373,25.883907 
	C73.094292,25.755224 72.590210,25.626543 72.086136,25.497860 
	C71.709717,26.976280 70.614128,28.803730 71.123085,29.852465 
	C71.914299,31.482765 73.824944,33.657276 75.209526,33.621220 
	C76.744110,33.581253 79.358826,31.442009 79.518608,29.997389 
	C80.099968,24.741053 79.912239,19.392122 79.838593,14.080542 
	C79.829536,13.427455 78.758583,12.789093 78.179726,12.143909 
	C77.555283,12.924567 76.466728,13.663542 76.392181,14.493589 
	C76.155167,17.132559 76.295898,19.805454 76.290352,23.418053 
M82.805885,23.647226 
	C82.824127,25.311832 82.327866,27.224705 82.982841,28.582067 
	C83.933052,30.551249 85.467926,33.232437 87.195671,33.615543 
	C90.334496,34.311543 91.752800,31.578539 92.017082,28.619566 
	C92.179581,26.800230 92.227821,24.959646 92.167473,23.133886 
	C92.060860,19.908546 91.989723,16.276379 87.644249,16.111464 
	C83.265205,15.945275 82.868202,19.386259 82.805885,23.647226 
M141.947983,21.013954 
	C142.777237,19.770414 143.606491,18.526876 144.301712,17.484356 
	C143.077866,15.556292 141.907776,13.712927 140.389771,11.321439 
	C139.227875,13.693191 137.367691,15.741668 137.410934,17.749140 
	C137.516022,22.627106 137.964752,27.648180 139.355804,32.287548 
	C140.106628,34.791702 142.894836,34.535583 144.734833,32.045399 
	C139.986084,29.459692 142.695663,25.238232 141.947983,21.013954 
M108.054352,44.953907 
	C108.063385,47.928848 107.855377,50.924404 108.135567,53.873585 
	C108.497993,57.688305 110.573654,58.460285 114.008385,56.326477 
	C110.741180,52.791634 110.745155,45.177036 113.890625,41.329113 
	C112.559235,39.221851 111.380798,37.356689 110.202362,35.491524 
	C109.731468,35.576748 109.260574,35.661972 108.789680,35.747200 
	C108.532059,38.524487 108.274429,41.301769 108.054352,44.953907 
M144.017365,44.500343 
	C143.559174,43.005917 143.100983,41.511486 142.642792,40.017059 
	C142.039719,40.200962 141.436661,40.384865 140.833588,40.568768 
	C140.833588,45.470776 140.774887,50.374241 140.896362,55.273235 
	C140.914764,56.014622 141.771606,56.735218 142.240616,57.465424 
	C142.829102,56.706955 143.879059,55.975643 143.925568,55.185287 
	C144.119064,51.897129 144.010223,48.591175 144.017365,44.500343 
M131.782028,18.867485 
	C131.782028,23.737698 131.782028,28.607910 131.782028,34.411888 
	C133.516663,33.320984 134.667252,32.945435 134.679047,32.537006 
	C134.822556,27.567566 135.153244,22.556870 134.648209,17.637697 
	C134.438141,15.591647 132.535202,15.376671 131.782028,18.867485 
z"/>
<path fill="#666870" opacity="1.000000" stroke="none" 
	d="
M197.000000,41.666664 
	C195.662247,47.579582 194.345230,53.164246 192.978622,58.736752 
	C192.216278,61.845299 190.629120,63.747398 186.159119,62.419655 
	C191.144653,59.772980 189.954514,56.154415 188.965164,52.477226 
	C187.934830,48.647697 187.108002,44.763420 186.186981,40.881130 
	C189.017410,40.580841 189.017410,40.580841 191.764450,50.583939 
	C192.310104,47.370041 192.406769,45.031765 193.181076,42.944916 
	C193.603149,41.807400 195.174393,41.096279 196.613678,40.096428 
	C197.000000,40.444447 197.000000,40.888889 197.000000,41.666664 
z"/>
<path fill="#4DADC1" opacity="1.000000" stroke="none" 
	d="
M9.593668,14.649374 
	C19.669748,2.605411 33.991634,-1.198946 47.463310,4.361928 
	C60.605904,9.786962 68.269272,22.791969 67.052750,37.605885 
	C65.963219,50.873363 55.516190,62.287399 41.536278,65.484230 
	C29.559322,68.223038 15.941324,62.723679 8.777608,52.255291 
	C0.893834,40.734673 1.107020,27.387144 9.593668,14.649374 
M18.019705,57.555679 
	C30.062218,65.611359 44.461021,64.811653 54.860531,55.509518 
	C64.302498,47.063892 67.029236,32.380604 61.321213,20.719261 
	C55.470791,8.766993 42.180279,2.108865 28.840576,5.147560 
	C16.698503,7.913442 8.732073,15.801826 6.386754,27.978085 
	C4.155142,39.564007 7.730921,49.682991 18.019705,57.555679 
z"/>
<path fill="#696C74" opacity="1.000000" stroke="none" 
	d="
M127.830223,50.697956 
	C127.789032,50.088985 127.784317,49.922611 127.784531,49.756241 
	C127.796730,40.377792 127.796768,40.377792 137.193405,40.565807 
	C137.193405,46.653542 137.498413,52.774658 136.980026,58.825230 
	C136.849609,60.347244 134.271103,62.240135 132.453308,62.819519 
	C131.360367,63.167877 129.563309,61.307106 128.082672,60.439125 
	C128.377609,59.920341 128.672562,59.401558 128.967499,58.882774 
	C130.306595,59.401512 131.645676,59.920250 133.422348,60.608490 
	C133.685715,59.199474 133.906448,58.018524 134.182556,56.541248 
	C129.220901,57.614109 127.919815,55.033695 127.830223,50.697956 
M131.091293,44.802071 
	C131.632812,47.844208 129.630966,51.489784 133.353088,53.900631 
	C134.001587,50.621708 134.034637,47.404602 133.886353,44.195873 
	C133.880112,44.061035 132.185898,44.004200 131.091293,44.802071 
z"/>
<path fill="#666971" opacity="1.000000" stroke="none" 
	d="
M162.104385,47.168617 
	C162.104401,44.718449 162.104401,42.741230 162.104401,40.313194 
	C165.943115,41.247025 171.535431,37.594055 171.799164,44.860741 
	C172.173798,55.183262 172.501251,57.431107 165.373322,58.339481 
	C165.118225,59.846462 164.854919,61.401928 164.574066,63.061066 
	C162.104370,61.608017 162.104370,61.608017 162.104385,47.168617 
M165.036102,51.302963 
	C165.503326,52.517273 165.970566,53.731583 166.437790,54.945900 
	C167.018967,54.513783 168.086945,54.100258 168.104279,53.646603 
	C168.242386,50.030334 168.181320,46.406464 168.181320,42.784924 
	C167.368073,42.732315 166.554825,42.679707 165.741577,42.627098 
	C165.506363,45.208351 165.271149,47.789600 165.036102,51.302963 
z"/>
<path fill="#666971" opacity="1.000000" stroke="none" 
	d="
M105.788307,11.999863 
	C110.540909,14.524637 110.956955,16.112337 108.108063,18.843414 
	C106.947296,17.530186 105.801575,16.196894 104.576157,14.941392 
	C104.503983,14.867452 103.398384,15.574151 103.431702,15.658903 
	C104.121758,17.414227 104.765869,19.214653 105.712547,20.834650 
	C106.712563,22.545931 108.656494,23.944994 109.027870,25.722807 
	C109.477966,27.877487 109.395836,30.766714 108.234962,32.417614 
	C107.447678,33.537228 103.915306,33.914463 102.505241,33.091282 
	C100.934113,32.174057 100.376671,29.520435 99.377975,27.622654 
	C99.977791,27.272612 100.577599,26.922569 101.177414,26.572527 
	C101.762276,27.283728 102.295204,28.047241 102.945312,28.692738 
	C103.737587,29.479391 104.628410,30.166794 105.476608,30.897127 
	C105.676804,29.628262 106.457184,28.034880 105.964302,27.153669 
	C104.679459,24.856544 102.663467,22.980513 101.252647,20.739159 
	C98.390854,16.192665 99.955254,13.022729 105.788307,11.999863 
z"/>
<path fill="#64676F" opacity="1.000000" stroke="none" 
	d="
M150.919525,56.773148 
	C148.802322,52.862171 149.675446,49.915428 153.256454,48.156006 
	C156.013321,46.801506 156.293091,45.167976 154.800903,41.959412 
	C153.505142,43.614887 152.624969,44.739410 151.744797,45.863937 
	C151.366684,45.853592 150.988556,45.843250 150.610443,45.832905 
	C150.610443,44.533489 150.079483,42.637447 150.724808,42.063160 
	C151.938950,40.982658 153.963745,39.963261 155.404205,40.234039 
	C156.752350,40.487465 158.664276,42.360317 158.788284,43.666645 
	C159.209457,48.103310 158.949188,52.604664 158.949188,57.436172 
	C156.191071,57.300171 153.693451,57.177013 150.919525,56.773148 
z"/>
<path fill="#60636B" opacity="1.000000" stroke="none" 
	d="
M70.977463,48.928162 
	C70.977455,44.485508 70.977455,40.528584 70.977455,36.118496 
	C75.083420,35.953434 78.922485,35.302883 80.504738,40.198616 
	C82.219269,45.503639 80.120224,49.425205 75.201614,51.383263 
	C74.127037,53.773869 73.284782,55.647636 72.442528,57.521404 
	C71.954178,55.482162 71.430817,53.450298 70.998299,51.399281 
	C70.864380,50.764263 70.977463,50.077156 70.977463,48.928162 
M75.254005,38.814590 
	C74.811737,41.894794 74.369469,44.974998 73.927200,48.055202 
	C74.609360,48.118256 75.291519,48.181305 75.973679,48.244354 
	C78.189514,45.361652 78.623154,42.309746 75.254005,38.814590 
z"/>
<path fill="#666971" opacity="1.000000" stroke="none" 
	d="
M95.853500,53.863922 
	C95.722893,50.510067 95.083122,47.381489 95.852295,44.649601 
	C96.372406,42.802299 98.715660,40.629826 100.550842,40.296810 
	C101.704193,40.087513 104.210037,42.794250 104.707405,44.582592 
	C105.433235,47.192440 105.359367,50.259434 104.740807,52.926128 
	C104.326576,54.711945 102.490334,57.287384 101.083641,57.427052 
	C99.491089,57.585167 97.667427,55.415573 95.853500,53.863922 
M101.093414,54.527679 
	C102.133179,50.510040 102.542007,46.548416 100.041939,42.819237 
	C99.077293,46.886024 97.422623,50.942188 101.093414,54.527679 
z"/>
<path fill="#656770" opacity="1.000000" stroke="none" 
	d="
M116.602913,54.916893 
	C116.295685,51.098972 115.668495,47.553745 116.285591,44.240246 
	C116.590416,42.603508 119.061722,40.543766 120.796158,40.280788 
	C122.019310,40.095329 124.551239,42.404999 124.908821,43.965107 
	C125.587433,46.925835 125.507599,50.214367 124.983414,53.234959 
	C124.701225,54.861107 123.073631,57.050438 121.632095,57.444107 
	C120.314835,57.803841 118.430450,56.086891 116.602913,54.916893 
M121.502884,43.090023 
	C118.159470,44.761692 117.878777,51.625015 121.924088,55.645203 
	C121.924088,51.161339 121.924088,47.531891 121.502884,43.090023 
z"/>
<path fill="#71747B" opacity="1.000000" stroke="none" 
	d="
M76.290497,22.941647 
	C76.295898,19.805454 76.155167,17.132559 76.392181,14.493589 
	C76.466728,13.663542 77.555283,12.924567 78.179726,12.143909 
	C78.758583,12.789093 79.829536,13.427455 79.838593,14.080542 
	C79.912239,19.392122 80.099968,24.741053 79.518608,29.997389 
	C79.358826,31.442009 76.744110,33.581253 75.209526,33.621220 
	C73.824944,33.657276 71.914299,31.482765 71.123085,29.852465 
	C70.614128,28.803730 71.709717,26.976280 72.086136,25.497860 
	C72.590210,25.626543 73.094292,25.755224 73.598373,25.883907 
	C73.928886,27.524298 74.259392,29.164686 74.589897,30.805077 
	C75.015747,30.810345 75.441589,30.815613 75.867432,30.820881 
	C76.008408,28.353271 76.149376,25.885662 76.290497,22.941647 
z"/>
<path fill="#61646C" opacity="1.000000" stroke="none" 
	d="
M82.806458,23.196056 
	C82.868202,19.386259 83.265205,15.945275 87.644249,16.111464 
	C91.989723,16.276379 92.060860,19.908546 92.167473,23.133886 
	C92.227821,24.959646 92.179581,26.800230 92.017082,28.619566 
	C91.752800,31.578539 90.334496,34.311543 87.195671,33.615543 
	C85.467926,33.232437 83.933052,30.551249 82.982841,28.582067 
	C82.327866,27.224705 82.824127,25.311832 82.806458,23.196056 
M88.992226,27.231724 
	C88.792404,24.424179 88.592590,21.616632 88.392769,18.809088 
	C87.830391,18.865511 87.268005,18.921932 86.705627,18.978355 
	C86.705627,22.977388 86.705627,26.976419 86.705627,30.975451 
	C87.137245,31.015789 87.568855,31.056128 88.000473,31.096466 
	C88.328781,30.107855 88.657089,29.119244 88.992226,27.231724 
z"/>
<path fill="#72757C" opacity="1.000000" stroke="none" 
	d="
M141.944962,21.448635 
	C142.695663,25.238232 139.986084,29.459692 144.734833,32.045399 
	C142.894836,34.535583 140.106628,34.791702 139.355804,32.287548 
	C137.964752,27.648180 137.516022,22.627106 137.410934,17.749140 
	C137.367691,15.741668 139.227875,13.693191 140.389771,11.321439 
	C141.907776,13.712927 143.077866,15.556292 144.301712,17.484356 
	C143.606491,18.526876 142.777237,19.770414 141.944962,21.448635 
z"/>
<path fill="#71747C" opacity="1.000000" stroke="none" 
	d="
M108.035583,44.516479 
	C108.274429,41.301769 108.532059,38.524487 108.789680,35.747200 
	C109.260574,35.661972 109.731468,35.576748 110.202362,35.491524 
	C111.380798,37.356689 112.559235,39.221851 113.890625,41.329113 
	C110.745155,45.177036 110.741180,52.791634 114.008385,56.326477 
	C110.573654,58.460285 108.497993,57.688305 108.135567,53.873585 
	C107.855377,50.924404 108.063385,47.928848 108.035583,44.516479 
z"/>
<path fill="#75787F" opacity="1.000000" stroke="none" 
	d="
M86.032570,39.939598 
	C92.270088,40.080898 92.869591,40.700165 92.947334,47.189335 
	C92.975159,49.511902 93.141869,51.857269 92.874329,54.148937 
	C92.733139,55.358315 91.794060,56.474541 91.215240,57.632828 
	C90.566803,56.535603 89.471535,55.482254 89.358620,54.332436 
	C89.084244,51.538544 89.454132,48.680309 89.164108,45.889603 
	C89.060638,44.893997 87.803932,44.018234 86.597290,42.793625 
	C86.091492,41.646187 86.062027,40.792892 86.032570,39.939598 
z"/>
<path fill="#787B82" opacity="1.000000" stroke="none" 
	d="
M116.028221,19.115803 
	C116.005638,22.941401 116.099052,26.773514 115.884712,30.588337 
	C115.825912,31.634941 114.845787,32.629780 114.288445,33.648373 
	C113.611221,32.740955 112.397354,31.860970 112.349335,30.921394 
	C112.137337,26.773754 112.197403,22.607555 112.288704,18.450930 
	C112.338043,16.204565 113.253960,15.241770 115.701149,17.446869 
	C116.051445,18.305885 116.039833,18.710844 116.028221,19.115803 
z"/>
<path fill="#666971" opacity="1.000000" stroke="none" 
	d="
M150.943985,18.633255 
	C150.594345,22.491329 150.327057,26.359694 149.847183,30.201500 
	C149.694168,31.426413 148.976730,32.580822 148.517548,33.767494 
	C148.072525,33.643715 147.627487,33.519936 147.182465,33.396156 
	C147.182465,25.954414 147.182465,18.512674 147.182465,11.070934 
	C147.748672,10.950139 148.314880,10.829343 148.881088,10.708548 
	C149.235626,12.486268 149.590164,14.263988 150.057251,16.708221 
	C150.427856,17.794239 150.685928,18.213747 150.943985,18.633255 
z"/>
<path fill="#5A5D65" opacity="1.000000" stroke="none" 
	d="
M86.089050,39.503460 
	C86.062027,40.792892 86.091492,41.646187 86.179459,42.924385 
	C86.214348,47.000107 86.306915,50.657520 86.100349,54.297962 
	C86.033432,55.477264 85.182419,56.612072 84.690071,57.767235 
	C84.246056,57.631798 83.802040,57.496361 83.358025,57.360924 
	C83.358025,49.994770 83.358025,42.628616 83.358025,35.262459 
	C83.805031,35.075340 84.252029,34.888218 84.699036,34.701099 
	C85.181198,36.156506 85.663368,37.611916 86.089050,39.503460 
z"/>
<path fill="#656870" opacity="1.000000" stroke="none" 
	d="
M178.035126,43.104813 
	C177.415100,56.330402 177.415100,56.330402 175.254196,57.704239 
	C175.254196,49.977634 175.254196,42.534679 175.254196,35.091724 
	C175.779663,34.964943 176.305130,34.838161 176.830597,34.711380 
	C177.205688,36.481297 177.580780,38.251217 177.988892,40.821388 
	C178.026321,42.116035 178.030731,42.610424 178.035126,43.104813 
z"/>
<path fill="#5F626A" opacity="1.000000" stroke="none" 
	d="
M178.464859,42.981728 
	C178.030731,42.610424 178.026321,42.116035 178.029617,41.250893 
	C181.985809,39.082367 184.113358,40.244984 184.161423,44.687981 
	C184.197388,48.013573 184.314163,51.348431 184.101410,54.660309 
	C184.038727,55.635796 182.975143,56.546986 182.370255,57.487640 
	C181.907578,56.586681 181.095184,55.704433 181.045792,54.781364 
	C180.877274,51.630524 181.123383,48.453964 180.879532,45.312973 
	C180.812439,44.448704 179.587982,43.674286 178.464859,42.981728 
z"/>
<path fill="#5E6169" opacity="1.000000" stroke="none" 
	d="
M116.441620,18.985209 
	C116.039833,18.710844 116.051445,18.305885 116.059494,17.597031 
	C118.069489,17.281523 120.083038,17.269911 122.471481,17.591042 
	C122.885353,18.178797 122.924339,18.433813 122.963333,18.688828 
	C122.647179,22.595583 122.420082,26.512938 121.957123,30.402218 
	C121.828957,31.478909 120.999680,32.472145 120.492081,33.503670 
	C119.934418,32.505558 118.971657,31.537184 118.895782,30.503702 
	C118.676743,27.519831 118.967194,24.497263 118.723129,21.517281 
	C118.646774,20.584980 117.507660,19.739717 116.441620,18.985209 
z"/>
<path fill="#5F626B" opacity="1.000000" stroke="none" 
	d="
M151.383087,18.713209 
	C150.685928,18.213747 150.427856,17.794239 150.096069,17.139656 
	C153.975327,15.147925 156.099777,16.351406 156.157990,20.754757 
	C156.204132,24.244465 156.285843,27.741297 156.093948,31.220745 
	C156.050720,32.004307 154.935913,32.728764 154.314407,33.480423 
	C153.871552,32.730618 153.130585,32.016510 153.035812,31.225025 
	C152.540863,27.091898 152.210068,22.939112 151.383087,18.713209 
z"/>
<path fill="#696C74" opacity="1.000000" stroke="none" 
	d="
M123.404732,18.755882 
	C122.924339,18.433813 122.885353,18.178797 122.785126,17.541246 
	C125.516434,15.086043 127.740021,15.892929 128.045197,19.125772 
	C128.490967,23.848064 128.159775,28.643700 128.159775,33.408070 
	C127.544579,33.526382 126.929390,33.644691 126.314194,33.763004 
	C125.907066,32.425621 125.322128,31.113577 125.127243,29.745947 
	C124.610222,26.117765 124.261696,22.465574 123.404732,18.755882 
z"/>
<path fill="#5C5F68" opacity="1.000000" stroke="none" 
	d="
M144.014832,44.896049 
	C144.010223,48.591175 144.119064,51.897129 143.925568,55.185287 
	C143.879059,55.975643 142.829102,56.706955 142.240616,57.465424 
	C141.771606,56.735218 140.914764,56.014622 140.896362,55.273235 
	C140.774887,50.374241 140.833588,45.470776 140.833588,40.568768 
	C141.436661,40.384865 142.039719,40.200962 142.642792,40.017059 
	C143.100983,41.511486 143.559174,43.005917 144.014832,44.896049 
z"/>
<path fill="#696B73" opacity="1.000000" stroke="none" 
	d="
M131.794098,18.411667 
	C132.535202,15.376671 134.438141,15.591647 134.648209,17.637697 
	C135.153244,22.556870 134.822556,27.567566 134.679047,32.537006 
	C134.667252,32.945435 133.516663,33.320984 131.782028,34.411888 
	C131.782028,28.607910 131.782028,23.737698 131.794098,18.411667 
z"/>
<path fill="#55616B" opacity="1.000000" stroke="none" 
	d="
M17.743977,57.319946 
	C7.730921,49.682991 4.155142,39.564007 6.386754,27.978085 
	C8.732073,15.801826 16.698503,7.913442 28.840576,5.147560 
	C42.180279,2.108865 55.470791,8.766993 61.321213,20.719261 
	C67.029236,32.380604 64.302498,47.063892 54.860531,55.509518 
	C44.461021,64.811653 30.062218,65.611359 17.743977,57.319946 
M24.105635,37.275406 
	C24.198036,37.318058 24.290438,37.360710 24.382839,37.403362 
	C24.251032,37.272469 24.119225,37.141575 24.123241,36.157589 
	C22.389551,28.692417 20.655859,21.227247 18.704218,12.823594 
	C12.677732,17.693438 9.749967,22.693239 9.069129,28.828770 
	C8.941739,29.976780 10.264498,31.962433 11.397500,32.452061 
	C15.490256,34.220757 19.787630,35.515965 24.105635,37.275406 
M61.031849,27.471962 
	C60.057030,26.631693 59.076614,25.066139 58.108334,25.073605 
	C53.280804,25.110830 48.456459,25.561453 42.095318,25.963715 
	C48.252789,33.159405 53.398170,39.172363 59.120346,45.859367 
	C61.508881,39.354050 62.994022,34.043617 61.031849,27.471962 
M36.132210,18.732763 
	C35.469963,19.947760 34.807713,21.162756 33.597294,23.383446 
	C42.585918,22.941702 50.497498,22.552889 59.443951,22.113216 
	C57.340366,19.127579 56.197697,17.104366 54.679668,15.419313 
	C47.323048,7.253267 43.607330,7.523330 37.686165,16.488270 
	C37.321056,17.041063 36.921303,17.570978 36.132210,18.732763 
M41.220989,55.693905 
	C41.220989,56.963062 41.220989,58.232216 41.220989,59.775276 
	C47.473637,58.412491 52.113312,55.131805 55.838505,50.536427 
	C56.503689,49.715855 56.942787,47.750233 56.450344,47.109520 
	C53.316730,43.032364 49.892605,39.178497 45.756912,34.298515 
	C44.145668,42.067436 42.813919,48.488716 41.220989,55.693905 
M19.914415,55.915150 
	C24.584133,57.441135 29.198103,59.206715 33.964821,60.315800 
	C35.083248,60.576027 37.585968,58.877068 37.959759,57.631641 
	C39.317249,53.108643 40.041153,48.395489 41.248856,42.573895 
	C33.208626,46.553028 26.135424,50.036072 19.112658,53.617996 
	C18.912523,53.720078 19.248800,54.873852 19.914415,55.915150 
M23.420801,21.005457 
	C24.053755,23.146023 24.686708,25.286587 25.758751,28.912086 
	C31.108852,21.269972 35.715134,14.690331 41.063332,7.050935 
	C37.008514,7.050935 34.689503,6.889346 32.399487,7.078638 
	C21.949276,7.942448 20.259706,10.397961 23.420801,21.005457 
M28.995373,45.869091 
	C29.752853,45.442703 30.510334,45.016312 32.512981,43.889011 
	C23.810204,40.334953 16.239902,37.243382 8.669602,34.151806 
	C8.327212,34.570595 7.984821,34.989380 7.642431,35.408169 
	C9.076035,39.395103 10.365304,43.441757 11.983359,47.352379 
	C13.640720,51.357994 16.172884,52.881298 20.349070,50.018188 
	C22.772718,48.356583 25.652609,47.360458 28.995373,45.869091 
M30.725185,26.849981 
	C30.008224,27.530113 29.147882,28.111435 28.599237,28.907560 
	C26.281952,32.270103 26.176285,35.775593 28.730230,38.989269 
	C31.150772,42.035084 34.469475,42.818535 38.084732,41.385784 
	C41.757450,39.930267 43.272030,36.996765 43.074356,33.119259 
	C42.786057,27.464279 38.714985,25.120228 30.725185,26.849981 
z"/>
<path fill="#F8F9F9" opacity="1.000000" stroke="none" 
	d="
M131.184662,44.356548 
	C132.185898,44.004200 133.880112,44.061035 133.886353,44.195873 
	C134.034637,47.404602 134.001587,50.621708 133.353088,53.900631 
	C129.630966,51.489784 131.632812,47.844208 131.184662,44.356548 
z"/>
<path fill="#FBFBFB" opacity="1.000000" stroke="none" 
	d="
M165.036011,50.836906 
	C165.271149,47.789600 165.506363,45.208351 165.741577,42.627098 
	C166.554825,42.679707 167.368073,42.732315 168.181320,42.784924 
	C168.181320,46.406464 168.242386,50.030334 168.104279,53.646603 
	C168.086945,54.100258 167.018967,54.513783 166.437790,54.945896 
	C165.970566,53.731583 165.503326,52.517273 165.036011,50.836906 
z"/>
<path fill="#E3E4E5" opacity="1.000000" stroke="none" 
	d="
M75.672379,38.895416 
	C78.623154,42.309746 78.189514,45.361652 75.973679,48.244354 
	C75.291519,48.181305 74.609360,48.118256 73.927200,48.055202 
	C74.369469,44.974998 74.811737,41.894794 75.672379,38.895416 
z"/>
<path fill="#EEEEEF" opacity="1.000000" stroke="none" 
	d="
M100.699097,54.716248 
	C97.422623,50.942188 99.077293,46.886024 100.041939,42.819237 
	C102.542007,46.548416 102.133179,50.510040 100.699097,54.716248 
z"/>
<path fill="#F7F7F8" opacity="1.000000" stroke="none" 
	d="
M121.713486,43.496231 
	C121.924088,47.531891 121.924088,51.161339 121.924088,55.645203 
	C117.878777,51.625015 118.159470,44.761692 121.713486,43.496231 
z"/>
<path fill="#F6F7F7" opacity="1.000000" stroke="none" 
	d="
M88.988815,27.681179 
	C88.657089,29.119244 88.328781,30.107855 88.000473,31.096466 
	C87.568855,31.056128 87.137245,31.015789 86.705627,30.975451 
	C86.705627,26.976419 86.705627,22.977388 86.705627,18.978355 
	C87.268005,18.921932 87.830391,18.865511 88.392769,18.809088 
	C88.592590,21.616632 88.792404,24.424179 88.988815,27.681179 
z"/>
<path fill="#46B0C0" opacity="1.000000" stroke="none" 
	d="
M61.087315,27.908085 
	C62.994022,34.043617 61.508881,39.354050 59.120346,45.859367 
	C53.398170,39.172363 48.252789,33.159405 42.095318,25.963715 
	C48.456459,25.561453 53.280804,25.110830 58.108334,25.073605 
	C59.076614,25.066139 60.057030,26.631693 61.087315,27.908085 
z"/>
<path fill="#45B1C2" opacity="1.000000" stroke="none" 
	d="
M36.334942,18.422152 
	C36.921303,17.570978 37.321056,17.041063 37.686165,16.488270 
	C43.607330,7.523330 47.323048,7.253267 54.679668,15.419313 
	C56.197697,17.104366 57.340366,19.127579 59.443951,22.113216 
	C50.497498,22.552889 42.585918,22.941702 33.597294,23.383446 
	C34.807713,21.162756 35.469963,19.947760 36.334942,18.422152 
z"/>
<path fill="#45B1C1" opacity="1.000000" stroke="none" 
	d="
M41.351578,55.301949 
	C42.813919,48.488716 44.145668,42.067436 45.756912,34.298515 
	C49.892605,39.178497 53.316730,43.032364 56.450344,47.109520 
	C56.942787,47.750233 56.503689,49.715855 55.838505,50.536427 
	C52.113312,55.131805 47.473637,58.412491 41.220989,59.775276 
	C41.220989,58.232216 41.220989,56.963062 41.351578,55.301949 
z"/>
<path fill="#46B0C1" opacity="1.000000" stroke="none" 
	d="
M19.624687,55.726196 
	C19.248800,54.873852 18.912523,53.720078 19.112658,53.617996 
	C26.135424,50.036072 33.208626,46.553028 41.248856,42.573895 
	C40.041153,48.395489 39.317249,53.108643 37.959759,57.631641 
	C37.585968,58.877068 35.083248,60.576027 33.964821,60.315800 
	C29.198103,59.206715 24.584133,57.441135 19.624687,55.726196 
z"/>
<path fill="#46B0C1" opacity="1.000000" stroke="none" 
	d="
M24.007750,36.989941 
	C19.787630,35.515965 15.490256,34.220757 11.397500,32.452061 
	C10.264498,31.962433 8.941739,29.976780 9.069129,28.828770 
	C9.749967,22.693239 12.677732,17.693438 18.704218,12.823594 
	C20.655859,21.227247 22.389551,28.692417 24.061247,36.579132 
	C23.999252,37.000679 24.007750,36.989941 24.007750,36.989941 
z"/>
<path fill="#45B1C1" opacity="1.000000" stroke="none" 
	d="
M23.291988,20.630062 
	C20.259706,10.397961 21.949276,7.942448 32.399487,7.078638 
	C34.689503,6.889346 37.008514,7.050935 41.063332,7.050935 
	C35.715134,14.690331 31.108852,21.269972 25.758751,28.912086 
	C24.686708,25.286587 24.053755,23.146023 23.291988,20.630062 
z"/>
<path fill="#45B1C1" opacity="1.000000" stroke="none" 
	d="
M28.661282,45.966980 
	C25.652609,47.360458 22.772718,48.356583 20.349070,50.018188 
	C16.172884,52.881298 13.640720,51.357994 11.983359,47.352379 
	C10.365304,43.441757 9.076035,39.395103 7.642431,35.408169 
	C7.984821,34.989380 8.327212,34.570595 8.669602,34.151806 
	C16.239902,37.243382 23.810204,40.334953 32.512981,43.889011 
	C30.510334,45.016312 29.752853,45.442703 28.661282,45.966980 
z"/>
<path fill="#45B1C2" opacity="1.000000" stroke="none" 
	d="
M31.062841,26.621754 
	C38.714985,25.120228 42.786057,27.464279 43.074356,33.119259 
	C43.272030,36.996765 41.757450,39.930267 38.084732,41.385784 
	C34.469475,42.818535 31.150772,42.035084 28.730230,38.989269 
	C26.176285,35.775593 26.281952,32.270103 28.599237,28.907560 
	C29.147882,28.111435 30.008224,27.530113 31.062841,26.621754 
z"/>
<path fill="#46B0C1" opacity="1.000000" stroke="none" 
	d="
M23.993336,37.005680 
	C24.119225,37.141575 24.251032,37.272469 24.382839,37.403358 
	C24.290438,37.360710 24.198036,37.318058 24.056692,37.132675 
	C24.007750,36.989941 23.999252,37.000679 23.993336,37.005680 
z"/>
</svg>